<mxfile host="app.diagrams.net" modified="2024-02-07T00:46:25.669Z" agent="Mozilla/5.0 (Windows NT 10.0; Win64; x64) AppleWebKit/537.36 (KHTML, like Gecko) Chrome/120.0.0.0 Safari/537.36" etag="eDp_n8fFooQARzByORzJ" version="23.1.1" type="github">
  <diagram name="Page-1" id="0783ab3e-0a74-02c8-0abd-f7b4e66b4bec">
    <mxGraphModel dx="2924" dy="1140" grid="1" gridSize="10" guides="1" tooltips="1" connect="1" arrows="1" fold="1" page="1" pageScale="1" pageWidth="850" pageHeight="1100" background="none" math="0" shadow="0">
      <root>
        <mxCell id="0" />
        <mxCell id="1" parent="0" />
        <mxCell id="n95UubTUEXaW6l02zeMs-1" value="Player" style="shape=umlActor;verticalLabelPosition=bottom;verticalAlign=top;html=1;outlineConnect=0;" vertex="1" parent="1">
          <mxGeometry x="-750" y="358" width="30" height="60" as="geometry" />
        </mxCell>
        <mxCell id="n95UubTUEXaW6l02zeMs-14" value="Teacher" style="shape=umlActor;verticalLabelPosition=bottom;verticalAlign=top;html=1;outlineConnect=0;" vertex="1" parent="1">
          <mxGeometry x="-750" y="640" width="30" height="60" as="geometry" />
        </mxCell>
        <mxCell id="n95UubTUEXaW6l02zeMs-22" value="Tester" style="shape=umlActor;verticalLabelPosition=bottom;verticalAlign=top;html=1;outlineConnect=0;" vertex="1" parent="1">
          <mxGeometry x="-750" y="970" width="30" height="60" as="geometry" />
        </mxCell>
        <mxCell id="n95UubTUEXaW6l02zeMs-30" value="debug" style="ellipse;whiteSpace=wrap;html=1;" vertex="1" parent="1">
          <mxGeometry x="-530" y="1180" width="140" height="70" as="geometry" />
        </mxCell>
        <mxCell id="n95UubTUEXaW6l02zeMs-31" value="check collection" style="ellipse;whiteSpace=wrap;html=1;" vertex="1" parent="1">
          <mxGeometry x="-530" y="550" width="140" height="70" as="geometry" />
        </mxCell>
        <mxCell id="n95UubTUEXaW6l02zeMs-32" value="start a new game" style="ellipse;whiteSpace=wrap;html=1;" vertex="1" parent="1">
          <mxGeometry x="-530" y="150" width="140" height="70" as="geometry" />
        </mxCell>
        <mxCell id="n95UubTUEXaW6l02zeMs-35" value="load a saved game" style="ellipse;whiteSpace=wrap;html=1;" vertex="1" parent="1">
          <mxGeometry x="-530" y="240" width="140" height="70" as="geometry" />
        </mxCell>
        <mxCell id="n95UubTUEXaW6l02zeMs-36" value="tack students&#39; progression" style="ellipse;whiteSpace=wrap;html=1;" vertex="1" parent="1">
          <mxGeometry x="-530" y="1050" width="140" height="70" as="geometry" />
        </mxCell>
        <mxCell id="n95UubTUEXaW6l02zeMs-37" value="view high scores" style="ellipse;whiteSpace=wrap;html=1;" vertex="1" parent="1">
          <mxGeometry x="-530" y="790" width="140" height="70" as="geometry" />
        </mxCell>
        <mxCell id="n95UubTUEXaW6l02zeMs-41" value="check tutiorals" style="ellipse;whiteSpace=wrap;html=1;" vertex="1" parent="1">
          <mxGeometry x="-530" y="930" width="140" height="70" as="geometry" />
        </mxCell>
        <mxCell id="n95UubTUEXaW6l02zeMs-42" value="select a puzzle and a level" style="ellipse;whiteSpace=wrap;html=1;" vertex="1" parent="1">
          <mxGeometry x="-200" y="1230" width="140" height="70" as="geometry" />
        </mxCell>
        <mxCell id="n95UubTUEXaW6l02zeMs-46" value="" style="endArrow=block;endSize=16;endFill=0;html=1;rounded=0;" edge="1" parent="1">
          <mxGeometry width="160" relative="1" as="geometry">
            <mxPoint x="-735" y="630" as="sourcePoint" />
            <mxPoint x="-735" y="450" as="targetPoint" />
            <Array as="points">
              <mxPoint x="-735" y="530" />
            </Array>
          </mxGeometry>
        </mxCell>
        <mxCell id="n95UubTUEXaW6l02zeMs-47" value="" style="endArrow=block;endSize=16;endFill=0;html=1;rounded=0;" edge="1" parent="1">
          <mxGeometry width="160" relative="1" as="geometry">
            <mxPoint x="-735" y="950" as="sourcePoint" />
            <mxPoint x="-735" y="730" as="targetPoint" />
          </mxGeometry>
        </mxCell>
        <mxCell id="n95UubTUEXaW6l02zeMs-50" value="&amp;lt;&amp;lt;includes&amp;gt;&amp;gt;" style="endArrow=open;endSize=12;dashed=1;html=1;rounded=0;exitX=1;exitY=0.5;exitDx=0;exitDy=0;entryX=0;entryY=0.5;entryDx=0;entryDy=0;" edge="1" parent="1" source="n95UubTUEXaW6l02zeMs-30" target="n95UubTUEXaW6l02zeMs-42">
          <mxGeometry width="160" relative="1" as="geometry">
            <mxPoint x="-400" y="1364.5" as="sourcePoint" />
            <mxPoint x="-200" y="1270" as="targetPoint" />
          </mxGeometry>
        </mxCell>
        <mxCell id="n95UubTUEXaW6l02zeMs-51" value="&amp;lt;&amp;lt;includes&amp;gt;&amp;gt;" style="endArrow=open;endSize=12;dashed=1;html=1;rounded=0;exitX=1;exitY=0.5;exitDx=0;exitDy=0;entryX=0;entryY=0.5;entryDx=0;entryDy=0;" edge="1" parent="1" source="n95UubTUEXaW6l02zeMs-32" target="n95UubTUEXaW6l02zeMs-68">
          <mxGeometry width="160" relative="1" as="geometry">
            <mxPoint x="-390" y="310" as="sourcePoint" />
            <mxPoint x="-210" y="190" as="targetPoint" />
          </mxGeometry>
        </mxCell>
        <mxCell id="n95UubTUEXaW6l02zeMs-52" value="&amp;lt;&amp;lt;includes&amp;gt;&amp;gt;" style="endArrow=open;endSize=12;dashed=1;html=1;rounded=0;exitX=1;exitY=0.5;exitDx=0;exitDy=0;entryX=0;entryY=0.5;entryDx=0;entryDy=0;" edge="1" parent="1" source="n95UubTUEXaW6l02zeMs-35" target="n95UubTUEXaW6l02zeMs-69">
          <mxGeometry width="160" relative="1" as="geometry">
            <mxPoint x="-390" y="430" as="sourcePoint" />
            <mxPoint x="-190" y="260" as="targetPoint" />
          </mxGeometry>
        </mxCell>
        <mxCell id="n95UubTUEXaW6l02zeMs-53" value="enter password" style="ellipse;whiteSpace=wrap;html=1;" vertex="1" parent="1">
          <mxGeometry x="-210" y="1070" width="140" height="70" as="geometry" />
        </mxCell>
        <mxCell id="n95UubTUEXaW6l02zeMs-54" value="&amp;lt;&amp;lt;includes&amp;gt;&amp;gt;" style="endArrow=open;endSize=12;dashed=1;html=1;rounded=0;exitX=1;exitY=0.5;exitDx=0;exitDy=0;" edge="1" parent="1" source="n95UubTUEXaW6l02zeMs-36" target="n95UubTUEXaW6l02zeMs-53">
          <mxGeometry width="160" relative="1" as="geometry">
            <mxPoint x="-370" y="749.5" as="sourcePoint" />
            <mxPoint x="-162" y="590.5" as="targetPoint" />
          </mxGeometry>
        </mxCell>
        <mxCell id="n95UubTUEXaW6l02zeMs-56" value="" style="endArrow=none;endSize=12;html=1;rounded=0;entryX=0;entryY=0.5;entryDx=0;entryDy=0;endFill=0;" edge="1" parent="1" source="n95UubTUEXaW6l02zeMs-1" target="n95UubTUEXaW6l02zeMs-37">
          <mxGeometry x="0.0009" width="160" relative="1" as="geometry">
            <mxPoint x="-700" y="390" as="sourcePoint" />
            <mxPoint x="-480" y="462" as="targetPoint" />
            <mxPoint as="offset" />
          </mxGeometry>
        </mxCell>
        <mxCell id="n95UubTUEXaW6l02zeMs-60" value="" style="endArrow=none;endSize=12;html=1;rounded=0;entryX=0;entryY=0.5;entryDx=0;entryDy=0;endFill=0;" edge="1" parent="1" source="n95UubTUEXaW6l02zeMs-1" target="n95UubTUEXaW6l02zeMs-31">
          <mxGeometry x="0.0009" width="160" relative="1" as="geometry">
            <mxPoint x="-710" y="380" as="sourcePoint" />
            <mxPoint x="-520" y="516" as="targetPoint" />
            <mxPoint as="offset" />
          </mxGeometry>
        </mxCell>
        <mxCell id="n95UubTUEXaW6l02zeMs-61" value="" style="endArrow=none;endSize=12;html=1;rounded=0;entryX=0.014;entryY=0.3;entryDx=0;entryDy=0;endFill=0;entryPerimeter=0;" edge="1" parent="1" source="n95UubTUEXaW6l02zeMs-1" target="n95UubTUEXaW6l02zeMs-41">
          <mxGeometry x="0.0009" width="160" relative="1" as="geometry">
            <mxPoint x="-690" y="595" as="sourcePoint" />
            <mxPoint x="-500" y="590" as="targetPoint" />
            <mxPoint as="offset" />
          </mxGeometry>
        </mxCell>
        <mxCell id="n95UubTUEXaW6l02zeMs-62" value="" style="endArrow=none;endSize=12;html=1;rounded=0;entryX=0.036;entryY=0.671;entryDx=0;entryDy=0;endFill=0;entryPerimeter=0;" edge="1" parent="1" source="n95UubTUEXaW6l02zeMs-1" target="n95UubTUEXaW6l02zeMs-35">
          <mxGeometry x="0.0009" width="160" relative="1" as="geometry">
            <mxPoint x="-700" y="335" as="sourcePoint" />
            <mxPoint x="-520" y="330" as="targetPoint" />
            <mxPoint as="offset" />
          </mxGeometry>
        </mxCell>
        <mxCell id="n95UubTUEXaW6l02zeMs-63" value="" style="endArrow=none;endSize=12;html=1;rounded=0;endFill=0;entryX=0.05;entryY=0.686;entryDx=0;entryDy=0;entryPerimeter=0;" edge="1" parent="1" source="n95UubTUEXaW6l02zeMs-1" target="n95UubTUEXaW6l02zeMs-32">
          <mxGeometry x="0.0009" width="160" relative="1" as="geometry">
            <mxPoint x="-700" y="245" as="sourcePoint" />
            <mxPoint x="-520" y="190" as="targetPoint" />
            <mxPoint as="offset" />
          </mxGeometry>
        </mxCell>
        <mxCell id="n95UubTUEXaW6l02zeMs-64" value="" style="endArrow=none;endSize=12;html=1;rounded=0;entryX=0;entryY=0.5;entryDx=0;entryDy=0;endFill=0;" edge="1" parent="1" source="n95UubTUEXaW6l02zeMs-22" target="n95UubTUEXaW6l02zeMs-30">
          <mxGeometry x="0.0009" width="160" relative="1" as="geometry">
            <mxPoint x="-740" y="1297.439024390244" as="sourcePoint" />
            <mxPoint x="-550" y="1315" as="targetPoint" />
            <mxPoint as="offset" />
          </mxGeometry>
        </mxCell>
        <mxCell id="n95UubTUEXaW6l02zeMs-65" value="" style="endArrow=none;endSize=12;html=1;rounded=0;entryX=0;entryY=0.5;entryDx=0;entryDy=0;endFill=0;" edge="1" parent="1" source="n95UubTUEXaW6l02zeMs-14" target="n95UubTUEXaW6l02zeMs-36">
          <mxGeometry x="0.0009" width="160" relative="1" as="geometry">
            <mxPoint x="-730" y="745" as="sourcePoint" />
            <mxPoint x="-540" y="740" as="targetPoint" />
            <mxPoint as="offset" />
          </mxGeometry>
        </mxCell>
        <mxCell id="n95UubTUEXaW6l02zeMs-66" value="enter username" style="ellipse;whiteSpace=wrap;html=1;" vertex="1" parent="1">
          <mxGeometry x="-530" y="670" width="140" height="70" as="geometry" />
        </mxCell>
        <mxCell id="n95UubTUEXaW6l02zeMs-68" value="select&amp;nbsp; a level" style="ellipse;whiteSpace=wrap;html=1;" vertex="1" parent="1">
          <mxGeometry x="-170" y="150" width="140" height="70" as="geometry" />
        </mxCell>
        <mxCell id="n95UubTUEXaW6l02zeMs-69" value="select a saved&amp;nbsp; progression" style="ellipse;whiteSpace=wrap;html=1;" vertex="1" parent="1">
          <mxGeometry x="-170" y="240" width="140" height="70" as="geometry" />
        </mxCell>
        <mxCell id="n95UubTUEXaW6l02zeMs-70" value="" style="endArrow=none;endSize=12;html=1;rounded=0;endFill=0;entryX=0.107;entryY=0.129;entryDx=0;entryDy=0;entryPerimeter=0;" edge="1" parent="1" source="n95UubTUEXaW6l02zeMs-1" target="n95UubTUEXaW6l02zeMs-66">
          <mxGeometry x="0.0009" width="160" relative="1" as="geometry">
            <mxPoint x="-710" y="391" as="sourcePoint" />
            <mxPoint x="-515" y="297" as="targetPoint" />
            <mxPoint as="offset" />
          </mxGeometry>
        </mxCell>
        <mxCell id="n95UubTUEXaW6l02zeMs-71" value="play a puzzle" style="ellipse;whiteSpace=wrap;html=1;" vertex="1" parent="1">
          <mxGeometry x="-530" y="410" width="140" height="70" as="geometry" />
        </mxCell>
        <mxCell id="n95UubTUEXaW6l02zeMs-72" value="&amp;lt;&amp;lt;includes&amp;gt;&amp;gt;" style="endArrow=open;endSize=12;dashed=1;html=1;rounded=0;exitX=0.964;exitY=0.357;exitDx=0;exitDy=0;exitPerimeter=0;entryX=-0.021;entryY=0.414;entryDx=0;entryDy=0;entryPerimeter=0;" edge="1" parent="1" source="n95UubTUEXaW6l02zeMs-71" target="n95UubTUEXaW6l02zeMs-73">
          <mxGeometry width="160" relative="1" as="geometry">
            <mxPoint x="-370" y="510" as="sourcePoint" />
            <mxPoint x="-220" y="420" as="targetPoint" />
          </mxGeometry>
        </mxCell>
        <mxCell id="n95UubTUEXaW6l02zeMs-73" value="exit current game" style="ellipse;whiteSpace=wrap;html=1;" vertex="1" parent="1">
          <mxGeometry x="-170" y="330" width="140" height="70" as="geometry" />
        </mxCell>
        <mxCell id="n95UubTUEXaW6l02zeMs-74" value="save current game" style="ellipse;whiteSpace=wrap;html=1;" vertex="1" parent="1">
          <mxGeometry x="-170" y="410" width="140" height="70" as="geometry" />
        </mxCell>
        <mxCell id="n95UubTUEXaW6l02zeMs-75" value="&amp;lt;&amp;lt;includes&amp;gt;&amp;gt;" style="endArrow=open;endSize=12;dashed=1;html=1;rounded=0;exitX=1;exitY=0.5;exitDx=0;exitDy=0;entryX=0;entryY=0.5;entryDx=0;entryDy=0;" edge="1" parent="1" source="n95UubTUEXaW6l02zeMs-71" target="n95UubTUEXaW6l02zeMs-74">
          <mxGeometry x="-0.0014" width="160" relative="1" as="geometry">
            <mxPoint x="-385" y="475" as="sourcePoint" />
            <mxPoint x="-210" y="430" as="targetPoint" />
            <mxPoint as="offset" />
          </mxGeometry>
        </mxCell>
        <mxCell id="n95UubTUEXaW6l02zeMs-76" value="" style="endArrow=none;endSize=12;html=1;rounded=0;entryX=0;entryY=0.286;entryDx=0;entryDy=0;endFill=0;entryPerimeter=0;" edge="1" parent="1" source="n95UubTUEXaW6l02zeMs-1" target="n95UubTUEXaW6l02zeMs-71">
          <mxGeometry x="0.0009" width="160" relative="1" as="geometry">
            <mxPoint x="-710" y="391" as="sourcePoint" />
            <mxPoint x="-515" y="297" as="targetPoint" />
            <mxPoint as="offset" />
          </mxGeometry>
        </mxCell>
        <mxCell id="n95UubTUEXaW6l02zeMs-77" value="use hints" style="ellipse;whiteSpace=wrap;html=1;" vertex="1" parent="1">
          <mxGeometry x="-170" y="510" width="140" height="70" as="geometry" />
        </mxCell>
        <mxCell id="n95UubTUEXaW6l02zeMs-78" value="&amp;lt;&amp;lt;includes&amp;gt;&amp;gt;" style="endArrow=open;endSize=12;dashed=1;html=1;rounded=0;exitX=0.936;exitY=0.743;exitDx=0;exitDy=0;entryX=0;entryY=0.5;entryDx=0;entryDy=0;exitPerimeter=0;" edge="1" parent="1" source="n95UubTUEXaW6l02zeMs-71" target="n95UubTUEXaW6l02zeMs-77">
          <mxGeometry x="-0.0014" width="160" relative="1" as="geometry">
            <mxPoint x="-390" y="445" as="sourcePoint" />
            <mxPoint x="-200" y="455" as="targetPoint" />
            <mxPoint as="offset" />
          </mxGeometry>
        </mxCell>
        <mxCell id="n95UubTUEXaW6l02zeMs-82" value="&amp;lt;&amp;lt;includes&amp;gt;&amp;gt;" style="endArrow=open;endSize=12;dashed=1;html=1;rounded=0;entryX=0.036;entryY=0.714;entryDx=0;entryDy=0;entryPerimeter=0;" edge="1" parent="1" source="n95UubTUEXaW6l02zeMs-30" target="n95UubTUEXaW6l02zeMs-53">
          <mxGeometry width="160" relative="1" as="geometry">
            <mxPoint x="-380" y="1115" as="sourcePoint" />
            <mxPoint x="-200" y="1115" as="targetPoint" />
          </mxGeometry>
        </mxCell>
      </root>
    </mxGraphModel>
  </diagram>
</mxfile>
